<svg width="294" height="104" viewBox="0 0 294 104" fill="none" xmlns="http://www.w3.org/2000/svg">
<path d="M34.8098 42.6647C35.3198 39.1614 35.7468 35.7824 36.1075 32.5569C36.3065 30.7782 35.013 29.1779 33.2343 28.9872C20.1248 27.6024 8.64054 28.6638 2.26821 29.5635C0.916627 29.7542 0.0998629 31.1431 0.572502 32.4076C0.58494 32.4449 0.605671 32.4822 0.626401 32.5154C1.18196 33.4482 9.25413 47.1216 12.7782 56.9475C17.3885 68.0835 22.1025 85.5546 22.1025 85.5546C22.8736 87.4617 25.6389 87.271 26.1365 85.2727C28.5992 75.3473 32.5088 58.4691 34.8098 42.6647Z" fill="#151414"/>
<path d="M21.9493 24.2571C25.237 24.2986 28.8938 24.4727 32.7868 24.8666C34.9552 25.0863 36.8789 23.4777 37.0489 21.3052C37.6418 13.6974 37.8366 7.44528 37.8905 3.1708C37.9112 1.33415 35.8175 0.268632 34.3416 1.36731C34.3416 1.36731 28.417 6.9146 22.0861 11.6286C16.4891 15.7952 5.99567 22.5034 5.99567 22.5034C4.90114 23.3201 5.57279 25.0614 6.93266 24.9246C11.0496 24.5059 16.174 24.1866 21.9493 24.2571Z" fill="#151414"/>
<path d="M44.4772 26.4092C49.5602 27.4125 54.8379 28.8387 60.095 30.8412C62.0809 31.5958 63.8222 29.2906 62.5536 27.5866C62.5536 27.5866 56.3346 20.4307 52.5162 15.2649C48.6688 10.0575 44.0419 2.76066 44.0419 2.76066C43.3702 1.86098 41.9357 2.3212 41.9233 3.44475C41.8653 7.83532 41.658 14.1828 41.0485 21.8694C40.8785 24.0336 42.3503 25.9904 44.4772 26.4092Z" fill="#151414"/>
<path d="M43.8024 30.3804C42.0113 30.0321 40.3032 31.2883 40.1001 33.1043C39.7435 36.2884 39.3206 39.6217 38.8189 43.0711C36.5014 58.9833 32.5669 75.9651 30.0834 85.9569C29.8098 87.0556 31.2277 87.7521 31.9325 86.869C31.9325 86.869 44.3248 68.548 52.3638 59.2072C52.3679 59.2031 52.3679 59.2031 52.3721 59.1989C56.4185 53.718 68.0935 41.6242 68.0935 41.6242C68.9269 40.5836 68.6076 39.0288 67.426 38.4152C59.7187 34.4144 51.6258 31.8978 43.8024 30.3804Z" fill="#151414"/>
<path d="M24.4789 89.6263L16.9167 96.0898C15.3163 97.458 16.0087 100.066 18.0775 100.464L31.5146 103.03C33.5253 103.416 35.0884 101.301 34.1307 99.4895L29.4167 90.5675C28.4548 88.7474 26.0502 88.2872 24.4789 89.6263Z" fill="#151414"/>
<path d="M97.0195 36.9383C97.0195 34.8251 98.7303 33.1144 100.844 33.1144C102.957 33.1144 104.667 34.8251 104.667 36.9383V37.2402C106.429 34.976 108.743 32.9131 112.617 32.9131C116.139 32.9131 118.806 34.4729 120.215 37.1899C122.58 34.4225 125.397 32.9131 129.071 32.9131C134.756 32.9131 138.178 36.3345 138.178 42.8253V56.8633C138.178 58.9765 136.467 60.6873 134.354 60.6873C132.24 60.6873 130.53 58.9765 130.53 56.8633V45.341C130.53 41.7183 128.92 39.8566 126.052 39.8566C123.184 39.8566 121.423 41.7183 121.423 45.341V56.8633C121.423 58.9765 119.712 60.6873 117.599 60.6873C115.485 60.6873 113.775 58.9765 113.775 56.8633V45.341C113.775 41.7183 112.165 39.8566 109.297 39.8566C106.429 39.8566 104.667 41.7183 104.667 45.341V56.8633C104.667 58.9765 102.957 60.6873 100.844 60.6873C98.7303 60.6873 97.0195 58.9765 97.0195 56.8633V36.9383Z" fill="#151414"/>
<path d="M155.575 60.9892C147.474 60.9892 141.486 55.3035 141.486 47.0517V46.9511C141.486 39.2528 146.971 32.9131 154.82 32.9131C163.826 32.9131 167.801 40.3095 167.801 45.8945C167.801 48.1084 166.242 49.5675 164.229 49.5675H149.084C149.839 53.0393 152.254 54.8507 155.675 54.8507C157.789 54.8507 159.55 54.1966 161.109 53.0393C161.663 52.6368 162.166 52.4355 162.971 52.4355C164.682 52.4355 165.94 53.7437 165.94 55.4545C165.94 56.4608 165.487 57.2155 164.933 57.7186C162.569 59.7313 159.499 60.9892 155.575 60.9892ZM160.506 44.7876C160.053 41.3661 158.04 39.0516 154.82 39.0516C151.65 39.0516 149.587 41.3158 148.983 44.7876H160.506Z" fill="#151414"/>
<path d="M172.878 52.737V39.9569H172.626C170.815 39.9569 169.355 38.4977 169.355 36.6863C169.355 34.875 170.815 33.4158 172.626 33.4158H172.878V30.0447C172.878 27.9314 174.588 26.2207 176.702 26.2207C178.815 26.2207 180.526 27.9314 180.526 30.0447V33.4158H183.897C185.708 33.4158 187.167 34.875 187.167 36.6863C187.167 38.4977 185.708 39.9569 183.897 39.9569H180.526V51.4791C180.526 53.2402 181.28 54.0955 182.991 54.0955C183.243 54.0955 183.746 54.0452 183.897 54.0452C185.607 54.0452 187.067 55.454 187.067 57.2151C187.067 58.5736 186.161 59.6806 185.104 60.0831C183.695 60.6365 182.387 60.8378 180.727 60.8378C176.047 60.8378 172.878 58.9761 172.878 52.737Z" fill="#151414"/>
<path d="M188.877 52.6367V52.5361C188.877 46.6491 193.355 43.9321 199.745 43.9321C202.462 43.9321 204.424 44.385 206.336 45.0391V44.5862C206.336 41.4163 204.374 39.6553 200.55 39.6553C198.437 39.6553 196.726 39.9572 195.267 40.41C194.814 40.5609 194.512 40.6113 194.16 40.6113C192.399 40.6113 190.99 39.2528 190.99 37.4917C190.99 36.1332 191.846 34.9759 193.053 34.5231C195.468 33.6174 198.085 33.1143 201.657 33.1143C205.833 33.1143 208.852 34.2212 210.764 36.1332C212.777 38.1458 213.682 41.1144 213.682 44.7371V57.0141C213.682 59.0771 212.022 60.6872 209.959 60.6872C207.745 60.6872 206.286 59.1274 206.286 57.5173V57.467C204.424 59.5299 201.858 60.8884 198.135 60.8884C193.053 60.8884 188.877 57.9701 188.877 52.6367ZM206.431 50.8756V49.5171C205.123 48.9133 203.412 48.5108 201.55 48.5108C198.28 48.5108 196.267 49.819 196.267 52.2342V52.3348C196.267 54.3977 197.978 55.6053 200.443 55.6053C204.016 55.6053 206.431 53.643 206.431 50.8756Z" fill="#151414"/>
<path d="M217.551 57.8192C216.746 57.3161 216.092 56.4104 216.092 55.2028C216.092 53.4921 217.4 52.1839 219.111 52.1839C219.664 52.1839 220.218 52.3348 220.62 52.5864C223.186 54.1965 225.752 55.0015 227.916 55.0015C230.13 55.0015 231.136 54.1965 231.136 52.9889V52.8883C231.136 51.2279 228.52 50.6744 225.551 49.7687C221.777 48.6618 217.501 46.9007 217.501 41.6679V41.5673C217.501 36.0829 221.928 33.0137 227.362 33.0137C230.18 33.0137 233.098 33.7684 235.715 35.0766C236.822 35.6301 237.526 36.6364 237.526 37.9446C237.526 39.6553 236.168 40.9635 234.457 40.9635C233.903 40.9635 233.551 40.8629 233.048 40.6113C230.885 39.5547 228.822 38.9006 227.212 38.9006C225.35 38.9006 224.394 39.7056 224.394 40.7622V40.8629C224.394 42.3723 226.96 43.0768 229.878 44.0831C233.652 45.341 238.029 47.1523 238.029 52.0832V52.1839C238.029 58.1714 233.551 60.8884 227.715 60.8884C224.388 60.8884 220.815 59.9325 217.551 57.8192Z" fill="#151414"/>
<path d="M241.494 27.1834C241.494 25.0701 243.205 23.3594 245.318 23.3594C247.431 23.3594 249.142 25.0701 249.142 27.1834V43.8881L258.702 34.8313C259.809 33.7747 260.715 33.1206 262.073 33.1206C264.136 33.1206 265.444 34.781 265.444 36.5421C265.444 37.8503 264.74 38.8566 263.683 39.8629L257.645 45.0454L264.841 54.7563C265.495 55.6619 265.797 56.3664 265.797 57.2217C265.797 59.2847 264.136 60.6935 262.224 60.6935C260.715 60.6935 259.809 60.1903 258.903 58.9325L252.211 49.7247L249.142 52.4921V56.8695C249.142 58.9828 247.431 60.6935 245.318 60.6935C243.205 60.6935 241.494 58.9828 241.494 56.8695V27.1834Z" fill="#151414"/>
<path d="M270.217 67.876C269.11 67.4735 267.802 66.5678 267.802 64.7061C267.802 62.8444 269.261 61.5866 270.821 61.5866C271.424 61.5866 271.777 61.6872 272.078 61.7878C272.733 61.9891 273.135 62.0897 273.689 62.0897C275.047 62.0897 275.701 61.8381 276.406 60.4796L276.657 59.8758L267.449 38.5483C267.248 38.0452 267.047 37.2905 267.047 36.7873C267.047 34.6237 268.707 33.1143 270.821 33.1143C272.733 33.1143 273.839 34.1709 274.494 35.9822L280.33 51.6807L285.966 36.0326C286.569 34.4225 287.676 33.1143 289.639 33.1143C291.601 33.1143 293.261 34.6237 293.261 36.6363C293.261 37.2401 293.06 38.0955 292.909 38.4477L283.5 61.0331C281.236 66.5175 278.972 68.5804 274.393 68.5804C272.682 68.5804 271.475 68.3289 270.217 67.876Z" fill="#151414"/>
</svg>
