<svg width="64" height="124" viewBox="0 0 64 124" fill="none" xmlns="http://www.w3.org/2000/svg">
<rect x="1.51172" y="1.61133" width="60.9792" height="94.3211" rx="30.4896" stroke="black" stroke-width="2"/>
<line x1="31.1484" y1="22.8389" x2="31.1484" y2="78.4087" stroke="black" stroke-width="2"/>
<path d="M3.5243 120.244V108.804H5.4123L10.5323 108.788C12.6016 108.788 14.207 109.273 15.3483 110.244C16.4896 111.215 17.0603 112.639 17.0603 114.516C17.0603 116.393 16.4896 117.817 15.3483 118.788C14.207 119.759 12.6016 120.244 10.5323 120.244H3.5243ZM10.3563 110.868H6.0843V118.164H10.3563C11.7003 118.164 12.719 117.871 13.4123 117.284C14.1056 116.697 14.4523 115.775 14.4523 114.516C14.4523 113.247 14.1056 112.324 13.4123 111.748C12.719 111.161 11.7003 110.868 10.3563 110.868ZM18.4249 120.244V112.004H24.7289C25.6569 112.004 26.3396 112.239 26.7769 112.708C27.2143 113.167 27.4329 113.775 27.4329 114.532V116.244H25.0809V114.82C25.0809 114.18 24.7609 113.86 24.1209 113.86H20.7769V120.244H18.4249ZM30.8982 120.244C30.0342 120.244 29.3728 120.025 28.9142 119.588C28.4555 119.151 28.2262 118.527 28.2262 117.716C28.2262 116.916 28.4555 116.297 28.9142 115.86C29.3728 115.423 30.0342 115.204 30.8982 115.204H37.0422V114.82C37.0422 114.169 36.7222 113.844 36.0822 113.844H29.2982V112.004H36.6902C37.6608 112.004 38.3488 112.228 38.7542 112.676C39.1595 113.113 39.3622 113.732 39.3622 114.532V120.244H30.8982ZM31.3142 118.404H37.0422V117.044H31.3142C31.1115 117.044 30.9515 117.108 30.8342 117.236C30.7275 117.353 30.6742 117.513 30.6742 117.716C30.6742 117.919 30.7275 118.084 30.8342 118.212C30.9515 118.34 31.1115 118.404 31.3142 118.404ZM43.08 123.844V122.004H47.912C48.552 122.004 48.872 121.679 48.872 121.028V120.244H45.352C43.9227 120.244 42.808 119.892 42.008 119.188C41.208 118.484 40.808 117.465 40.808 116.132C40.808 114.788 41.208 113.764 42.008 113.06C42.808 112.356 43.9227 112.004 45.352 112.004H51.192V121.316C51.192 122.073 50.9734 122.681 50.536 123.14C50.0987 123.609 49.416 123.844 48.488 123.844H43.08ZM45.352 118.404H48.872V113.844H45.352C44.6587 113.844 44.1254 114.036 43.752 114.42C43.3894 114.793 43.208 115.364 43.208 116.132C43.208 116.889 43.3894 117.46 43.752 117.844C44.1254 118.217 44.6587 118.404 45.352 118.404Z" fill="black"/>
</svg>
