<svg width="152" height="189" viewBox="0 0 152 189" fill="none" xmlns="http://www.w3.org/2000/svg">
<path d="M80.6819 80.1944C83.068 75.0121 85.2692 69.9842 87.2979 65.1631C88.4167 62.5047 87.1472 59.4412 84.4851 58.3352C64.8539 50.2155 46.6191 46.6181 36.3593 45.1022C34.1832 44.7805 32.2873 46.5547 32.4411 48.7248C32.4433 48.7882 32.4584 48.8553 32.4753 48.916C32.9085 50.6113 39.1488 75.4273 40.1142 92.2221C42.161 111.537 41.4785 140.692 41.4785 140.692C41.8006 143.991 46.1619 144.958 47.8423 142.096C56.1758 127.878 69.9169 103.573 80.6819 80.1944Z" fill="#151414"/>
<path d="M69.1995 45.8786C74.2623 47.4422 79.8349 49.3792 85.6726 51.7636C88.9239 53.0922 92.631 51.4832 93.8846 48.2029C98.2709 36.7142 101.424 27.1395 103.457 20.5572C104.326 17.7278 101.576 15.126 98.7937 16.151C98.7937 16.151 87.1063 22.023 75.1709 26.4216C64.6194 30.309 45.3406 35.8914 45.3406 35.8914C43.2763 36.6546 43.5202 39.6524 45.6845 40.0612C52.2389 41.2917 60.305 43.1355 69.1995 45.8786Z" fill="#151414"/>
<path d="M103.041 59.4794C110.44 63.3485 117.947 67.9602 125.159 73.4531C127.884 75.5252 131.627 72.7564 130.444 69.544C130.444 69.544 124.095 55.647 120.549 45.9207C116.978 36.1172 113.154 22.7284 113.154 22.7284C112.526 21.0315 110.099 21.0885 109.568 22.8195C107.475 29.5793 104.26 39.2957 99.8119 50.8986C98.562 54.1661 99.9444 57.8621 103.041 59.4794Z" fill="#151414"/>
<path d="M100.186 65.3091C97.5763 63.9539 94.3632 65.1165 93.2209 67.8307C91.2176 72.5896 89.0436 77.5489 86.6949 82.6517C75.8551 106.189 62.0283 130.643 53.6325 144.954C52.7085 146.527 54.5824 148.251 56.0746 147.207C56.0746 147.207 83.5849 124.541 100.271 113.77C100.279 113.766 100.279 113.766 100.287 113.761C109.042 107.135 132.603 93.7674 132.603 93.7674C134.366 92.5391 134.582 89.9904 133.035 88.503C122.947 78.8038 111.586 71.2228 100.186 65.3091Z" fill="#151414"/>
<path d="M43.2938 148.07L28.6572 154.611C25.5596 155.996 25.4403 160.342 28.4565 161.901L48.055 171.996C50.9871 173.509 54.3674 170.954 53.7134 167.717L50.4967 151.776C49.8401 148.524 46.3333 146.716 43.2938 148.07Z" fill="#151414"/>
</svg>
