<svg width="164" height="164" viewBox="0 0 164 164" fill="none" xmlns="http://www.w3.org/2000/svg">
<path d="M153.9 0.510742L156.599 7.80277L163.891 10.5011L156.599 13.1994L153.9 20.4914L151.202 13.1994L143.91 10.5011L151.202 7.80277L153.9 0.510742Z" fill="url(#paint0_linear_2_6)"/>
<path d="M118.147 0.510742L120.845 7.80277L128.137 10.5011L120.845 13.1994L118.147 20.4914L115.448 13.1994L108.156 10.5011L115.448 7.80277L118.147 0.510742Z" fill="url(#paint1_linear_2_6)"/>
<path d="M82.1282 0.510742L84.8975 7.80277L92.3814 10.5011L84.8975 13.1994L82.1282 20.4914L79.3589 13.1994L71.875 10.5011L79.3589 7.80277L82.1282 0.510742Z" fill="url(#paint2_linear_2_6)"/>
<path d="M46.1114 0.510742L48.8097 7.80277L56.1017 10.5011L48.8097 13.1994L46.1114 20.4914L43.4131 13.1994L36.1211 10.5011L43.4131 7.80277L46.1114 0.510742Z" fill="url(#paint3_linear_2_6)"/>
<path d="M10.3556 0.510742L13.0538 7.80277L20.3459 10.5011L13.0538 13.1994L10.3556 20.4914L7.65726 13.1994L0.365234 10.5011L7.65726 7.80277L10.3556 0.510742Z" fill="url(#paint4_linear_2_6)"/>
<path d="M153.9 36.2656L156.599 43.5577L163.891 46.2559L156.599 48.9542L153.9 56.2463L151.202 48.9542L143.91 46.2559L151.202 43.5577L153.9 36.2656Z" fill="url(#paint5_linear_2_6)"/>
<path d="M118.147 36.2656L120.845 43.5577L128.137 46.2559L120.845 48.9542L118.147 56.2463L115.448 48.9542L108.156 46.2559L115.448 43.5577L118.147 36.2656Z" fill="url(#paint6_linear_2_6)"/>
<path d="M82.1282 36.2656L84.8975 43.5577L92.3814 46.2559L84.8975 48.9542L82.1282 56.2463L79.3589 48.9542L71.875 46.2559L79.3589 43.5577L82.1282 36.2656Z" fill="url(#paint7_linear_2_6)"/>
<path d="M46.1114 36.2656L48.8097 43.5577L56.1017 46.2559L48.8097 48.9542L46.1114 56.2463L43.4131 48.9542L36.1211 46.2559L43.4131 43.5577L46.1114 36.2656Z" fill="url(#paint8_linear_2_6)"/>
<path d="M10.3556 36.2656L13.0538 43.5577L20.3459 46.2559L13.0538 48.9542L10.3556 56.2463L7.65726 48.9542L0.365234 46.2559L7.65726 43.5577L10.3556 36.2656Z" fill="url(#paint9_linear_2_6)"/>
<path d="M153.9 72.0205L156.599 79.3125L163.891 82.0108L156.599 84.7091L153.9 92.0011L151.202 84.7091L143.91 82.0108L151.202 79.3125L153.9 72.0205Z" fill="url(#paint10_linear_2_6)"/>
<path d="M118.147 72.0205L120.845 79.3125L128.137 82.0108L120.845 84.7091L118.147 92.0011L115.448 84.7091L108.156 82.0108L115.448 79.3125L118.147 72.0205Z" fill="url(#paint11_linear_2_6)"/>
<path d="M82.1282 72.0205L84.8975 79.3125L92.3814 82.0108L84.8975 84.7091L82.1282 92.0011L79.3589 84.7091L71.875 82.0108L79.3589 79.3125L82.1282 72.0205Z" fill="url(#paint12_linear_2_6)"/>
<path d="M46.1114 72.0205L48.8097 79.3125L56.1017 82.0108L48.8097 84.7091L46.1114 92.0011L43.4131 84.7091L36.1211 82.0108L43.4131 79.3125L46.1114 72.0205Z" fill="url(#paint13_linear_2_6)"/>
<path d="M10.3556 72.0205L13.0538 79.3125L20.3459 82.0108L13.0538 84.7091L10.3556 92.0011L7.65726 84.7091L0.365234 82.0108L7.65726 79.3125L10.3556 72.0205Z" fill="url(#paint14_linear_2_6)"/>
<path d="M153.9 107.775L156.599 115.067L163.891 117.766L156.599 120.464L153.9 127.756L151.202 120.464L143.91 117.766L151.202 115.067L153.9 107.775Z" fill="url(#paint15_linear_2_6)"/>
<path d="M118.147 107.775L120.845 115.067L128.137 117.766L120.845 120.464L118.147 127.756L115.448 120.464L108.156 117.766L115.448 115.067L118.147 107.775Z" fill="url(#paint16_linear_2_6)"/>
<path d="M82.1282 107.775L84.8975 115.067L92.3814 117.766L84.8975 120.464L82.1282 127.756L79.3589 120.464L71.875 117.766L79.3589 115.067L82.1282 107.775Z" fill="url(#paint17_linear_2_6)"/>
<path d="M46.1114 107.775L48.8097 115.067L56.1017 117.766L48.8097 120.464L46.1114 127.756L43.4131 120.464L36.1211 117.766L43.4131 115.067L46.1114 107.775Z" fill="url(#paint18_linear_2_6)"/>
<path d="M10.3556 107.775L13.0538 115.067L20.3459 117.766L13.0538 120.464L10.3556 127.756L7.65726 120.464L0.365234 117.766L7.65726 115.067L10.3556 107.775Z" fill="url(#paint19_linear_2_6)"/>
<path d="M153.9 143.53L156.599 150.822L163.891 153.521L156.599 156.219L153.9 163.511L151.202 156.219L143.91 153.521L151.202 150.822L153.9 143.53Z" fill="url(#paint20_linear_2_6)"/>
<path d="M118.147 143.53L120.845 150.822L128.137 153.521L120.845 156.219L118.147 163.511L115.448 156.219L108.156 153.521L115.448 150.822L118.147 143.53Z" fill="url(#paint21_linear_2_6)"/>
<path d="M82.1282 143.53L84.8975 150.822L92.3814 153.521L84.8975 156.219L82.1282 163.511L79.3589 156.219L71.875 153.521L79.3589 150.822L82.1282 143.53Z" fill="url(#paint22_linear_2_6)"/>
<path d="M46.1114 143.53L48.8097 150.822L56.1017 153.521L48.8097 156.219L46.1114 163.511L43.4131 156.219L36.1211 153.521L43.4131 150.822L46.1114 143.53Z" fill="url(#paint23_linear_2_6)"/>
<path d="M10.3556 143.53L13.0538 150.822L20.3459 153.521L13.0538 156.219L10.3556 163.511L7.65726 156.219L0.365234 153.521L7.65726 150.822L10.3556 143.53Z" fill="url(#paint24_linear_2_6)"/>
<defs>
<linearGradient id="paint0_linear_2_6" x1="153.9" y1="0.510742" x2="153.9" y2="20.4914" gradientUnits="userSpaceOnUse">
<stop stop-color="#7182EA"/>
<stop offset="1" stop-color="#BC53DF"/>
</linearGradient>
<linearGradient id="paint1_linear_2_6" x1="118.147" y1="0.510742" x2="118.147" y2="20.4914" gradientUnits="userSpaceOnUse">
<stop stop-color="#7182EA"/>
<stop offset="1" stop-color="#BC53DF"/>
</linearGradient>
<linearGradient id="paint2_linear_2_6" x1="82.1282" y1="0.510742" x2="82.1282" y2="20.4914" gradientUnits="userSpaceOnUse">
<stop stop-color="#7182EA"/>
<stop offset="1" stop-color="#BC53DF"/>
</linearGradient>
<linearGradient id="paint3_linear_2_6" x1="46.1114" y1="0.510742" x2="46.1114" y2="20.4914" gradientUnits="userSpaceOnUse">
<stop stop-color="#7182EA"/>
<stop offset="1" stop-color="#BC53DF"/>
</linearGradient>
<linearGradient id="paint4_linear_2_6" x1="10.3556" y1="0.510742" x2="10.3556" y2="20.4914" gradientUnits="userSpaceOnUse">
<stop stop-color="#7182EA"/>
<stop offset="1" stop-color="#BC53DF"/>
</linearGradient>
<linearGradient id="paint5_linear_2_6" x1="153.9" y1="36.2656" x2="153.9" y2="56.2463" gradientUnits="userSpaceOnUse">
<stop stop-color="#7182EA"/>
<stop offset="1" stop-color="#BC53DF"/>
</linearGradient>
<linearGradient id="paint6_linear_2_6" x1="118.147" y1="36.2656" x2="118.147" y2="56.2463" gradientUnits="userSpaceOnUse">
<stop stop-color="#7182EA"/>
<stop offset="1" stop-color="#BC53DF"/>
</linearGradient>
<linearGradient id="paint7_linear_2_6" x1="82.1282" y1="36.2656" x2="82.1282" y2="56.2463" gradientUnits="userSpaceOnUse">
<stop stop-color="#7182EA"/>
<stop offset="1" stop-color="#BC53DF"/>
</linearGradient>
<linearGradient id="paint8_linear_2_6" x1="46.1114" y1="36.2656" x2="46.1114" y2="56.2463" gradientUnits="userSpaceOnUse">
<stop stop-color="#7182EA"/>
<stop offset="1" stop-color="#BC53DF"/>
</linearGradient>
<linearGradient id="paint9_linear_2_6" x1="10.3556" y1="36.2656" x2="10.3556" y2="56.2463" gradientUnits="userSpaceOnUse">
<stop stop-color="#7182EA"/>
<stop offset="1" stop-color="#BC53DF"/>
</linearGradient>
<linearGradient id="paint10_linear_2_6" x1="153.9" y1="72.0205" x2="153.9" y2="92.0011" gradientUnits="userSpaceOnUse">
<stop stop-color="#7182EA"/>
<stop offset="1" stop-color="#BC53DF"/>
</linearGradient>
<linearGradient id="paint11_linear_2_6" x1="118.147" y1="72.0205" x2="118.147" y2="92.0011" gradientUnits="userSpaceOnUse">
<stop stop-color="#7182EA"/>
<stop offset="1" stop-color="#BC53DF"/>
</linearGradient>
<linearGradient id="paint12_linear_2_6" x1="82.1282" y1="72.0205" x2="82.1282" y2="92.0011" gradientUnits="userSpaceOnUse">
<stop stop-color="#7182EA"/>
<stop offset="1" stop-color="#BC53DF"/>
</linearGradient>
<linearGradient id="paint13_linear_2_6" x1="46.1114" y1="72.0205" x2="46.1114" y2="92.0011" gradientUnits="userSpaceOnUse">
<stop stop-color="#7182EA"/>
<stop offset="1" stop-color="#BC53DF"/>
</linearGradient>
<linearGradient id="paint14_linear_2_6" x1="10.3556" y1="72.0205" x2="10.3556" y2="92.0011" gradientUnits="userSpaceOnUse">
<stop stop-color="#7182EA"/>
<stop offset="1" stop-color="#BC53DF"/>
</linearGradient>
<linearGradient id="paint15_linear_2_6" x1="153.9" y1="107.775" x2="153.9" y2="127.756" gradientUnits="userSpaceOnUse">
<stop stop-color="#7182EA"/>
<stop offset="1" stop-color="#BC53DF"/>
</linearGradient>
<linearGradient id="paint16_linear_2_6" x1="118.147" y1="107.775" x2="118.147" y2="127.756" gradientUnits="userSpaceOnUse">
<stop stop-color="#7182EA"/>
<stop offset="1" stop-color="#BC53DF"/>
</linearGradient>
<linearGradient id="paint17_linear_2_6" x1="82.1282" y1="107.775" x2="82.1282" y2="127.756" gradientUnits="userSpaceOnUse">
<stop stop-color="#7182EA"/>
<stop offset="1" stop-color="#BC53DF"/>
</linearGradient>
<linearGradient id="paint18_linear_2_6" x1="46.1114" y1="107.775" x2="46.1114" y2="127.756" gradientUnits="userSpaceOnUse">
<stop stop-color="#7182EA"/>
<stop offset="1" stop-color="#BC53DF"/>
</linearGradient>
<linearGradient id="paint19_linear_2_6" x1="10.3556" y1="107.775" x2="10.3556" y2="127.756" gradientUnits="userSpaceOnUse">
<stop stop-color="#7182EA"/>
<stop offset="1" stop-color="#BC53DF"/>
</linearGradient>
<linearGradient id="paint20_linear_2_6" x1="153.9" y1="143.53" x2="153.9" y2="163.511" gradientUnits="userSpaceOnUse">
<stop stop-color="#7182EA"/>
<stop offset="1" stop-color="#BC53DF"/>
</linearGradient>
<linearGradient id="paint21_linear_2_6" x1="118.147" y1="143.53" x2="118.147" y2="163.511" gradientUnits="userSpaceOnUse">
<stop stop-color="#7182EA"/>
<stop offset="1" stop-color="#BC53DF"/>
</linearGradient>
<linearGradient id="paint22_linear_2_6" x1="82.1282" y1="143.53" x2="82.1282" y2="163.511" gradientUnits="userSpaceOnUse">
<stop stop-color="#7182EA"/>
<stop offset="1" stop-color="#BC53DF"/>
</linearGradient>
<linearGradient id="paint23_linear_2_6" x1="46.1114" y1="143.53" x2="46.1114" y2="163.511" gradientUnits="userSpaceOnUse">
<stop stop-color="#7182EA"/>
<stop offset="1" stop-color="#BC53DF"/>
</linearGradient>
<linearGradient id="paint24_linear_2_6" x1="10.3556" y1="143.53" x2="10.3556" y2="163.511" gradientUnits="userSpaceOnUse">
<stop stop-color="#7182EA"/>
<stop offset="1" stop-color="#BC53DF"/>
</linearGradient>
</defs>
</svg>
